<svg version="1.0" xmlns="http://www.w3.org/2000/svg" width="742.000000pt" height="417.000000pt" viewBox="0 0 742.000000 417.000000" preserveAspectRatio="xMidYMid meet">

<g transform="translate(0.000000,417.000000) scale(0.100000,-0.100000)" fill="#3d27a3" stroke="none">
<path d="M3775 3848 c-130 -372 -306 -711 -533 -1022 -136 -186 -168 -221 -260 -279 -136 -85 -126 -82 -180 -51 -119 68 -148 84 -157 83 -12 0 -79 -108 -133 -214 -33 -64 -56 -94 -117 -148 -85 -77 -84 -77 -133 1 -107 173 -227 381 -252 436 -27 60 -50 85 -50 54 0 -22 -126 -264 -217 -417 -190 -320 -255 -406 -548 -730 -77 -85 -173 -193 -214 -240 -115 -135 -182 -200 -213 -206 -15 -4 -47 -22 -70 -41 -79 -67 -125 -79 -230 -60 l-48 8 0 -46 c0 -30 4 -46 13 -46 6 0 46 -5 87 -11 41 -5 143 -19 225 -29 83 -11 211 -29 285 -40 74 -11 218 -32 320 -45 102 -14 210 -29 240 -35 50 -9 103 -17 340 -50 41 -6 163 -24 270 -40 107 -16 249 -36 315 -45 109 -15 217 -30 498 -70 72 -11 135 -29 240 -71 175 -69 205 -84 267 -133 58 -46 147 -67 236 -56 46 5 70 17 147 71 94 66 232 138 322 167 28 9 109 24 180 32 72 8 198 26 280 40 83 13 209 31 280 40 72 8 234 30 360 49 127 19 325 48 440 65 116 17 298 44 405 60 170 26 312 47 560 81 206 29 221 32 231 52 18 33 4 48 -45 48 -24 0 -93 12 -152 26 -134 32 -135 33 -377 293 -477 511 -583 644 -760 953 -42 72 -163 320 -171 348 -13 46 -28 80 -36 80 -4 0 -22 -29 -39 -64 -29 -59 -106 -179 -180 -281 -16 -22 -55 -80 -85 -128 -31 -48 -63 -90 -71 -93 -44 -17 -537 483 -718 728 -31 43 -84 119 -116 170 -33 51 -64 98 -68 103 -18 21 -304 605 -321 656 -18 53 -38 73 -47 47z m-84 -1204 c54 -57 238 -213 271 -230 25 -13 35 -14 53 -4 21 11 28 7 89 -57 86 -92 268 -229 419 -316 160 -92 299 -167 310 -167 12 0 -55 -78 -68 -79 -18 -2 -259 114 -370 178 -60 35 -157 97 -214 137 -58 41 -111 74 -118 74 -34 0 -1 -110 97 -325 38 -82 80 -179 94 -214 l26 -65 -37 45 c-21 24 -61 69 -88 99 -63 69 -124 169 -258 425 -157 301 -230 435 -238 435 -6 0 -48 -112 -68 -180 -5 -19 -17 -54 -25 -77 -9 -25 -13 -55 -10 -73 6 -25 1 -35 -29 -63 -44 -41 -87 -158 -67 -182 7 -8 18 -15 25 -15 6 0 70 -27 141 -61 71 -33 167 -79 214 -100 188 -87 212 -77 -182 -78 -260 0 -352 -4 -368 -13 -15 -10 -26 -10 -52 0 -26 9 -35 9 -44 -1 -201 -221 -248 -268 -255 -251 -4 12 4 40 21 74 16 31 43 98 61 150 29 83 41 104 95 161 34 36 65 75 68 87 4 11 31 37 61 57 40 26 62 51 85 93 17 31 48 82 70 112 58 81 92 154 88 191 -3 31 -5 30 -73 -61 -38 -52 -88 -124 -111 -160 -35 -55 -46 -65 -73 -68 -21 -2 -33 2 -37 12 -3 9 -11 16 -16 16 -6 0 -45 -33 -87 -73 -92 -88 -150 -126 -308 -207 l-121 -62 -31 28 c-17 15 -31 30 -31 34 0 4 28 20 62 34 79 34 382 234 468 309 36 31 133 114 215 185 83 72 184 164 225 206 41 42 77 76 80 76 3 0 22 -16 41 -36z m-1472 -771 c11 -21 48 -77 83 -124 181 -248 293 -359 386 -384 31 -9 91 -27 133 -40 109 -34 196 -48 259 -41 55 6 55 6 30 -11 -14 -10 -43 -34 -65 -54 -22 -20 -74 -61 -115 -91 -105 -77 -125 -100 -110 -128 26 -49 1 -37 -55 27 -33 37 -73 79 -89 93 -16 13 -42 42 -57 64 l-29 39 0 -57 c0 -58 -20 -186 -30 -186 -3 0 -14 21 -24 48 -13 31 -45 72 -96 122 -42 41 -102 104 -135 140 -48 53 -57 60 -51 37 23 -94 17 -140 -14 -102 -7 8 -18 15 -25 15 -7 0 -18 7 -25 16 -11 12 -10 42 4 162 22 188 25 317 7 360 -14 33 -19 37 -37 24 -14 -9 -74 -128 -74 -147 0 -8 -7 -15 -15 -15 -9 0 -15 -9 -15 -21 0 -16 -4 -19 -17 -15 -12 5 -33 -10 -72 -51 -55 -57 -133 -123 -145 -123 -4 0 -16 -9 -28 -20 -21 -19 -21 -20 -2 -42 10 -12 29 -31 41 -43 13 -11 49 -44 80 -74 l58 -54 -50 38 c-27 21 -69 56 -92 79 -26 24 -46 36 -51 31 -5 -6 -32 -43 -62 -83 -46 -64 -54 -71 -63 -55 -5 10 -23 33 -40 50 -17 18 -29 34 -26 36 2 2 47 30 99 61 141 86 168 107 255 198 85 88 161 196 210 296 17 34 33 61 37 61 4 1 16 -16 27 -36z m3056 -29 c119 -213 348 -459 494 -534 l45 -22 -35 -17 c-87 -43 -239 -167 -284 -231 -15 -22 -30 -39 -32 -37 -2 2 6 57 17 121 11 65 20 134 20 153 l0 35 -52 -43 c-80 -66 -233 -222 -264 -269 -16 -23 -30 -38 -32 -32 -2 8 29 167 65 330 3 12 1 22 -3 22 -11 0 -333 -325 -358 -360 -13 -19 -15 -20 -10 -5 64 187 104 309 100 312 -2 2 -29 -12 -59 -31 -64 -41 -207 -106 -233 -106 -10 0 -32 -5 -49 -12 -31 -11 -35 -9 -105 48 -142 115 -156 125 -213 153 l-59 29 39 6 c21 3 88 10 149 16 188 15 343 54 423 104 77 49 263 245 325 344 32 50 62 92 66 92 5 0 25 -30 45 -66z m-1525 -336 c162 -186 296 -313 404 -386 85 -57 115 -72 144 -72 l37 0 -40 -23 c-58 -34 -144 -95 -188 -134 -22 -19 -41 -33 -43 -30 -10 10 -64 174 -64 194 0 13 -4 23 -8 23 -5 0 -54 -47 -110 -104 -71 -71 -102 -110 -102 -127 0 -36 -16 -11 -34 51 -39 141 -54 191 -59 196 -2 3 -15 -11 -27 -31 -12 -20 -50 -71 -84 -114 -34 -43 -71 -90 -82 -106 -20 -27 -20 -25 2 101 25 140 29 204 14 204 -5 0 -24 -12 -42 -27 -43 -36 -55 -43 -163 -98 -49 -25 -93 -49 -97 -53 -4 -4 2 -26 13 -47 l21 -40 -49 47 c-26 26 -77 62 -113 79 -60 30 -63 33 -40 40 14 4 38 7 55 8 16 1 61 13 99 27 63 25 81 39 216 173 121 121 155 162 199 239 29 50 57 92 61 92 4 0 40 -37 80 -82z m-1450 -466 c0 -7 -4 -10 -10 -7 -5 3 -10 16 -10 28 0 18 2 19 10 7 5 -8 10 -21 10 -28z" fill="#3d27a3"/>
</g>
</svg>